<?xml version="1.0" encoding="UTF-8"?>
<!DOCTYPE svg PUBLIC "-//W3C//DTD SVG 1.1//EN" "http://www.w3.org/Graphics/SVG/1.1/DTD/svg11.dtd">
<svg xmlns="http://www.w3.org/2000/svg" version="1.1" width="278px" height="226px" style="shape-rendering:geometricPrecision; text-rendering:geometricPrecision; image-rendering:optimizeQuality; fill-rule:evenodd; clip-rule:evenodd" xmlns:xlink="http://www.w3.org/1999/xlink">
<g><path style="opacity:1" fill="#12266e" d="M 138.5,20.5 C 149.759,28.7552 160.425,37.7552 170.5,47.5C 170.557,48.609 170.89,49.609 171.5,50.5C 168.789,49.1371 166.289,47.4704 164,45.5C 162.662,46.5061 161.329,47.5061 160,48.5C 158.578,46.2564 156.744,44.5898 154.5,43.5C 152.143,43.6917 150.476,44.8584 149.5,47C 147.5,47.6667 145.5,47.6667 143.5,47C 147.764,44.9801 149.098,41.8134 147.5,37.5C 146.167,37.5 144.833,37.5 143.5,37.5C 143.669,35.088 143.003,32.9214 141.5,31C 142.885,29.4029 143.551,27.5695 143.5,25.5C 142.5,25.5 141.5,25.5 140.5,25.5C 140.657,26.8734 140.49,28.2068 140,29.5C 138.989,28.6634 137.822,28.33 136.5,28.5C 136.5,46.1667 136.5,63.8333 136.5,81.5C 139.336,81.7978 139.836,81.1311 138,79.5C 137.167,63.4896 137.334,47.4896 138.5,31.5C 139.313,47.1681 140.146,62.8347 141,78.5C 141.692,79.0253 142.192,79.6919 142.5,80.5C 141.133,93.3374 140.133,106.337 139.5,119.5C 140.389,138.155 140.722,156.822 140.5,175.5C 139.5,175.5 138.5,175.5 137.5,175.5C 137.667,159.497 137.5,143.497 137,127.5C 136.167,145.176 136.334,162.843 137.5,180.5C 139.262,178.311 141.429,176.644 144,175.5C 145.765,176.632 147.598,177.632 149.5,178.5C 149.5,179.167 149.5,179.833 149.5,180.5C 147.54,182.156 145.54,183.823 143.5,185.5C 140.632,185.085 138.465,186.085 137,188.5C 136.667,188.167 136.333,187.833 136,187.5C 135.5,131.834 135.333,76.1677 135.5,20.5C 136.5,20.5 137.5,20.5 138.5,20.5 Z"/></g>
<g><path style="opacity:1" fill="#122471" d="M 171.5,50.5 C 173.986,52.7552 176.486,55.0886 179,57.5C 180.712,61.1032 180.879,64.7699 179.5,68.5C 179.516,70.516 180.516,71.516 182.5,71.5C 185.094,74.8223 187.761,78.1557 190.5,81.5C 190.24,83.1871 189.573,84.6871 188.5,86C 189,86.5 189.5,87 190,87.5C 191.191,85.1531 193.024,84.3198 195.5,85C 194.884,87.1785 193.717,89.0118 192,90.5C 189.022,88.689 186.522,86.3557 184.5,83.5C 182.647,82.2404 180.814,82.2404 179,83.5C 179.969,92.3316 180.469,101.332 180.5,110.5C 180.656,119.288 179.989,127.954 178.5,136.5C 180.199,136.473 181.533,135.806 182.5,134.5C 182.938,135.506 183.604,135.506 184.5,134.5C 185.209,135.404 186.209,135.737 187.5,135.5C 187.5,134.5 187.5,133.5 187.5,132.5C 189.5,132.5 191.5,132.5 193.5,132.5C 193.281,131.325 193.614,130.325 194.5,129.5C 198.93,126.585 202.596,123.585 205.5,120.5C 205.315,114.686 205.648,109.02 206.5,103.5C 205.167,102.167 203.833,100.833 202.5,99.5C 204.103,98.1014 205.437,96.4347 206.5,94.5C 207.687,95.6527 208.687,95.6527 209.5,94.5C 210.5,94.8333 211.167,95.5 211.5,96.5C 210.379,98.0894 210.546,99.7561 212,101.5C 212.333,113.833 212.667,126.167 213,138.5C 213.2,140.32 214.034,141.653 215.5,142.5C 215.5,143.167 215.167,143.5 214.5,143.5C 213.022,143.238 211.689,143.571 210.5,144.5C 208.757,146.321 207.257,148.321 206,150.5C 204.731,149.095 204.231,147.429 204.5,145.5C 205.5,145.5 206.5,145.5 207.5,145.5C 207.762,144.022 207.429,142.689 206.5,141.5C 204.191,142.651 202.024,143.984 200,145.5C 198.862,145.011 197.695,144.678 196.5,144.5C 198.771,142.734 200.937,140.734 203,138.5C 203.667,137.167 203.667,135.833 203,134.5C 198.94,138.07 194.773,141.404 190.5,144.5C 188.166,143.876 185.833,143.043 183.5,142C 178.789,140.831 177.956,141.664 181,144.5C 181.667,145.833 181.667,147.167 181,148.5C 179.527,148.132 178.027,148.632 176.5,150C 175.743,151.512 174.743,152.846 173.5,154C 172.551,154.617 171.718,154.451 171,153.5C 170.189,157.143 168.022,159.477 164.5,160.5C 159.934,167.03 154.934,173.03 149.5,178.5C 147.598,177.632 145.765,176.632 144,175.5C 141.429,176.644 139.262,178.311 137.5,180.5C 136.334,162.843 136.167,145.176 137,127.5C 137.5,143.497 137.667,159.497 137.5,175.5C 138.5,175.5 139.5,175.5 140.5,175.5C 140.722,156.822 140.389,138.155 139.5,119.5C 140.133,106.337 141.133,93.3374 142.5,80.5C 142.192,79.6919 141.692,79.0253 141,78.5C 140.146,62.8347 139.313,47.1681 138.5,31.5C 137.334,47.4896 137.167,63.4896 138,79.5C 139.836,81.1311 139.336,81.7978 136.5,81.5C 136.5,63.8333 136.5,46.1667 136.5,28.5C 137.822,28.33 138.989,28.6634 140,29.5C 140.49,28.2068 140.657,26.8734 140.5,25.5C 141.5,25.5 142.5,25.5 143.5,25.5C 143.551,27.5695 142.885,29.4029 141.5,31C 143.003,32.9214 143.669,35.088 143.5,37.5C 144.833,37.5 146.167,37.5 147.5,37.5C 149.098,41.8134 147.764,44.9801 143.5,47C 145.5,47.6667 147.5,47.6667 149.5,47C 150.476,44.8584 152.143,43.6917 154.5,43.5C 156.744,44.5898 158.578,46.2564 160,48.5C 161.329,47.5061 162.662,46.5061 164,45.5C 166.289,47.4704 168.789,49.1371 171.5,50.5 Z"/></g>
<g><path style="opacity:0.227" fill="#0a204f" d="M 129.5,29.5 C 129.833,29.5 130.167,29.5 130.5,29.5C 130.667,48.8362 130.5,68.1695 130,87.5C 129.617,88.056 129.117,88.3893 128.5,88.5C 129.464,68.8671 129.797,49.2004 129.5,29.5 Z"/></g>
<g><path style="opacity:1" fill="#122671" d="M 129.5,29.5 C 129.797,49.2004 129.464,68.8671 128.5,88.5C 128.5,89.1667 128.167,89.5 127.5,89.5C 125.533,89.7394 123.699,89.4061 122,88.5C 121.333,69.1667 121.333,49.8333 122,30.5C 124.333,29.8333 126.667,29.1667 129,28.5C 129.399,28.7284 129.565,29.0618 129.5,29.5 Z"/></g>
<g><path style="opacity:0.54" fill="#36447e" d="M 130.5,29.5 C 130.167,29.5 129.833,29.5 129.5,29.5C 129.565,29.0618 129.399,28.7284 129,28.5C 126.667,29.1667 124.333,29.8333 122,30.5C 121.333,49.8333 121.333,69.1667 122,88.5C 123.699,89.4061 125.533,89.7394 127.5,89.5C 125.73,90.764 124.063,92.264 122.5,94C 121.216,94.6838 120.049,94.5171 119,93.5C 118.333,71.8333 118.333,50.1667 119,28.5C 122.256,26.5715 125.756,26.0715 129.5,27C 130.252,27.6708 130.586,28.5041 130.5,29.5 Z"/></g>
<g><path style="opacity:0.529" fill="#22336a" d="M 170.5,47.5 C 174.782,50.28 178.616,53.6134 182,57.5C 182.499,62.1548 182.666,66.8215 182.5,71.5C 180.516,71.516 179.516,70.516 179.5,68.5C 180.879,64.7699 180.712,61.1032 179,57.5C 176.486,55.0886 173.986,52.7552 171.5,50.5C 170.89,49.609 170.557,48.609 170.5,47.5 Z"/></g>
<g><path style="opacity:1" fill="#122571" d="M 112.5,52.5 C 112.637,63.7209 112.304,75.0543 111.5,86.5C 112.5,86.5 113.5,86.5 114.5,86.5C 112.914,89.5816 112.081,93.5816 112,98.5C 110.542,97.2532 109.042,97.2532 107.5,98.5C 106.5,98.1667 105.833,97.5 105.5,96.5C 106.483,81.8819 106.817,67.2153 106.5,52.5C 108.389,51.2584 110.389,51.2584 112.5,52.5 Z"/></g>
<g><path style="opacity:0.745" fill="#1d2f6e" d="M 182.5,71.5 C 189.726,77.2733 196.726,83.2733 203.5,89.5C 205.5,91.1667 207.5,92.8333 209.5,94.5C 208.687,95.6527 207.687,95.6527 206.5,94.5C 205.437,96.4347 204.103,98.1014 202.5,99.5C 203.833,100.833 205.167,102.167 206.5,103.5C 205.648,109.02 205.315,114.686 205.5,120.5C 202.596,123.585 198.93,126.585 194.5,129.5C 193.614,130.325 193.281,131.325 193.5,132.5C 191.5,132.5 189.5,132.5 187.5,132.5C 187.5,133.5 187.5,134.5 187.5,135.5C 186.209,135.737 185.209,135.404 184.5,134.5C 190.771,129.068 196.937,123.401 203,117.5C 203.867,113.044 203.534,108.711 202,104.5C 195.667,98.8333 189.333,93.1667 183,87.5C 182.5,103.163 182.333,118.83 182.5,134.5C 181.533,135.806 180.199,136.473 178.5,136.5C 179.989,127.954 180.656,119.288 180.5,110.5C 180.469,101.332 179.969,92.3316 179,83.5C 180.814,82.2404 182.647,82.2404 184.5,83.5C 186.522,86.3557 189.022,88.689 192,90.5C 193.717,89.0118 194.884,87.1785 195.5,85C 193.024,84.3198 191.191,85.1531 190,87.5C 189.5,87 189,86.5 188.5,86C 189.573,84.6871 190.24,83.1871 190.5,81.5C 187.761,78.1557 185.094,74.8223 182.5,71.5 Z M 184.5,134.5 C 183.604,135.506 182.938,135.506 182.5,134.5C 182.333,118.83 182.5,103.163 183,87.5C 189.333,93.1667 195.667,98.8333 202,104.5C 203.534,108.711 203.867,113.044 203,117.5C 196.937,123.401 190.771,129.068 184.5,134.5 Z"/></g>
<g><path style="opacity:0.89" fill="#33417b" d="M 97.5,115.5 C 99.4917,103.615 99.9917,91.6151 99,79.5C 99.3711,74.0097 97.2045,72.3431 92.5,74.5C 91.3393,88.3272 91.1727,102.327 92,116.5C 92.9862,117.171 94.1529,117.171 95.5,116.5C 94.0053,119.336 91.8386,120.336 89,119.5C 88.176,103.592 88.3427,87.7591 89.5,72C 92.9591,70.2945 96.4591,70.1278 100,71.5C 100.667,85.5 100.667,99.5 100,113.5C 99.2917,114.381 98.4584,115.047 97.5,115.5 Z"/></g>
<g><path style="opacity:0.099" fill="#243266" d="M 115.5,60.5 C 115.098,57.5234 114.098,54.8567 112.5,52.5C 110.389,51.2584 108.389,51.2584 106.5,52.5C 104.514,69.8017 103.847,87.4684 104.5,105.5C 105.833,105.5 107.167,105.5 108.5,105.5C 107.081,106.451 105.415,106.784 103.5,106.5C 103.333,88.1636 103.5,69.8303 104,51.5C 107.059,48.2904 110.559,47.7904 114.5,50C 116.622,53.4472 116.955,56.9472 115.5,60.5 Z"/></g>
<g><path style="opacity:0.91" fill="#293678" d="M 79.5,94.5 C 79.5858,93.5041 79.2524,92.6708 78.5,92C 81.1025,90.4464 82.2692,88.2798 82,85.5C 81.6667,85.8333 81.3333,86.1667 81,86.5C 80.3109,85.6433 79.4776,84.9767 78.5,84.5C 73.6468,87.35 69.4801,91.0167 66,95.5C 64.4126,94.273 63.0793,94.6063 62,96.5C 61.5357,95.9056 61.369,95.2389 61.5,94.5C 68.5251,88.1433 75.8585,82.1433 83.5,76.5C 84.4419,76.6082 85.2753,76.9415 86,77.5C 86.6667,81.1667 86.6667,84.8333 86,88.5C 84.5945,91.4086 82.4278,93.4086 79.5,94.5 Z"/></g>
<g><path style="opacity:1" fill="#142775" d="M 203.5,89.5 C 203.246,92.0143 202.413,94.3476 201,96.5C 199.644,97.3802 198.144,97.7135 196.5,97.5C 193.009,90.0476 195.343,87.381 203.5,89.5 Z"/></g>
<g><path style="opacity:1" fill="#162873" d="M 79.5,94.5 C 79.5,95.1667 79.1667,95.5 78.5,95.5C 75.7552,96.6162 72.9218,97.6162 70,98.5C 68.328,99.5054 66.9946,100.839 66,102.5C 63.9555,101.228 62.1222,101.561 60.5,103.5C 58.8467,111.379 58.0133,119.379 58,127.5C 56.5592,118.942 56.0592,110.276 56.5,101.5C 57.5,101.5 58.5,101.5 59.5,101.5C 59.5172,99.4352 59.8505,97.4352 60.5,95.5C 60.5,94.8333 60.8333,94.5 61.5,94.5C 61.369,95.2389 61.5357,95.9056 62,96.5C 63.0793,94.6063 64.4126,94.273 66,95.5C 69.4801,91.0167 73.6468,87.35 78.5,84.5C 79.4776,84.9767 80.3109,85.6433 81,86.5C 81.3333,86.1667 81.6667,85.8333 82,85.5C 82.2692,88.2798 81.1025,90.4464 78.5,92C 79.2524,92.6708 79.5858,93.5041 79.5,94.5 Z"/></g>
<g><path style="opacity:0.771" fill="#213076" d="M 106.5,52.5 C 106.817,67.2153 106.483,81.8819 105.5,96.5C 105.833,97.5 106.5,98.1667 107.5,98.5C 109.042,97.2532 110.542,97.2532 112,98.5C 112.081,93.5816 112.914,89.5816 114.5,86.5C 113.5,86.5 112.5,86.5 111.5,86.5C 112.304,75.0543 112.637,63.7209 112.5,52.5C 114.098,54.8567 115.098,57.5234 115.5,60.5C 115.541,73.187 115.708,85.8537 116,98.5C 114.285,101.717 111.785,104.05 108.5,105.5C 107.167,105.5 105.833,105.5 104.5,105.5C 103.847,87.4684 104.514,69.8017 106.5,52.5 Z"/></g>
<g><path style="opacity:1" fill="#26377e" d="M 97.5,115.5 C 97.1583,116.338 96.4916,116.672 95.5,116.5C 94.1529,117.171 92.9862,117.171 92,116.5C 91.1727,102.327 91.3393,88.3272 92.5,74.5C 97.2045,72.3431 99.3711,74.0097 99,79.5C 99.9917,91.6151 99.4917,103.615 97.5,115.5 Z"/></g>
<g><path style="opacity:1" fill="#0f256f" d="M 92.5,74.5 C 93.8333,74.5 95.1667,74.5 96.5,74.5C 96.6666,87.1711 96.4999,99.8377 96,112.5C 95.3109,113.357 94.4776,114.023 93.5,114.5C 92.5466,101.59 92.2133,88.2564 92.5,74.5 Z"/></g>
<g><path style="opacity:0.899" fill="#203376" d="M 211.5,96.5 C 213.173,97.343 214.34,98.6763 215,100.5C 215.5,114.496 215.667,128.496 215.5,142.5C 214.034,141.653 213.2,140.32 213,138.5C 212.667,126.167 212.333,113.833 212,101.5C 210.546,99.7561 210.379,98.0894 211.5,96.5 Z"/></g>
<g><path style="opacity:0.227" fill="#132158" d="M 138.5,20.5 C 137.5,20.5 136.5,20.5 135.5,20.5C 135.333,76.1677 135.5,131.834 136,187.5C 136.333,187.833 136.667,188.167 137,188.5C 138.465,186.085 140.632,185.085 143.5,185.5C 141.396,187.099 139.396,188.932 137.5,191C 136.551,191.617 135.718,191.451 135,190.5C 134.333,133.5 134.333,76.5 135,19.5C 136.756,18.015 137.923,18.3484 138.5,20.5 Z"/></g>
<g><path style="opacity:0.229" fill="#112455" d="M 129.5,93.5 C 130.664,123.997 130.831,154.664 130,185.5C 127.497,186.238 125.663,185.238 124.5,182.5C 126.017,182.511 127.184,183.177 128,184.5C 128.333,184.167 128.667,183.833 129,183.5C 129.5,153.502 129.667,123.502 129.5,93.5 Z"/></g>
<g><path style="opacity:1" fill="#172970" d="M 129.5,93.5 C 129.667,123.502 129.5,153.502 129,183.5C 128.667,183.833 128.333,184.167 128,184.5C 127.184,183.177 126.017,182.511 124.5,182.5C 122.611,181.396 120.945,180.063 119.5,178.5C 120.222,178.082 120.722,177.416 121,176.5C 121.829,156.996 121.662,137.662 120.5,118.5C 119.79,114.646 117.79,113.813 114.5,116C 113.177,116.816 112.511,117.983 112.5,119.5C 112.182,135.645 112.015,151.645 112,167.5C 110.254,165.543 108.088,164.543 105.5,164.5C 105.01,153.338 104.343,142.338 103.5,131.5C 102.671,130.668 101.838,131.001 101,132.5C 100.5,141.494 100.334,150.494 100.5,159.5C 99.1266,159.657 97.7932,159.49 96.5,159C 87,150.833 77.5,142.667 68,134.5C 67.3333,135.833 67.3333,137.167 68,138.5C 90.6473,157.646 113.147,176.98 135.5,196.5C 155.853,179.144 176.186,161.811 196.5,144.5C 197.695,144.678 198.862,145.011 200,145.5C 202.024,143.984 204.191,142.651 206.5,141.5C 207.429,142.689 207.762,144.022 207.5,145.5C 206.5,145.5 205.5,145.5 204.5,145.5C 204.231,147.429 204.731,149.095 206,150.5C 207.257,148.321 208.757,146.321 210.5,144.5C 211.689,143.571 213.022,143.238 214.5,143.5C 211.448,147.058 208.114,150.558 204.5,154C 182.538,172.293 160.872,190.959 139.5,210C 137.635,211.301 135.635,211.635 133.5,211C 107.907,189.285 82.4069,167.452 57,145.5C 55.3658,130.259 55.0325,114.926 56,99.5C 57.3712,97.9586 58.8712,96.6253 60.5,95.5C 59.8505,97.4352 59.5172,99.4352 59.5,101.5C 58.5,101.5 57.5,101.5 56.5,101.5C 56.0592,110.276 56.5592,118.942 58,127.5C 58.0133,119.379 58.8467,111.379 60.5,103.5C 62.1222,101.561 63.9555,101.228 66,102.5C 66.9946,100.839 68.328,99.5054 70,98.5C 72.9218,97.6162 75.7552,96.6162 78.5,95.5C 74.6967,98.8309 71.1967,102.498 68,106.5C 67.3333,110.167 67.3333,113.833 68,117.5C 72.7161,122.22 77.7161,126.553 83,130.5C 98.115,118.389 112.948,105.889 127.5,93C 128.437,92.3083 129.103,92.475 129.5,93.5 Z"/></g>
<g><path style="opacity:0.869" fill="#223275" d="M 112.5,119.5 C 113.106,122.167 113.939,124.834 115,127.5C 115.172,134.013 115.672,140.347 116.5,146.5C 115.79,154.815 115.457,163.149 115.5,171.5C 114.277,172.614 112.944,172.781 111.5,172C 109.612,169.81 107.445,167.977 105,166.5C 103.543,154.935 103.043,143.268 103.5,131.5C 104.343,142.338 105.01,153.338 105.5,164.5C 108.088,164.543 110.254,165.543 112,167.5C 112.015,151.645 112.182,135.645 112.5,119.5 Z"/></g>
<g><path style="opacity:0.52" fill="#314180" d="M 120.5,118.5 C 121.662,137.662 121.829,156.996 121,176.5C 120.722,177.416 120.222,178.082 119.5,178.5C 118.586,175.272 118.253,171.939 118.5,168.5C 119.167,151.833 119.833,135.167 120.5,118.5 Z"/></g>
<g><path style="opacity:0.831" fill="#1e2f71" d="M 190.5,144.5 C 177.061,156.726 163.395,168.726 149.5,180.5C 149.5,179.833 149.5,179.167 149.5,178.5C 154.934,173.03 159.934,167.03 164.5,160.5C 168.022,159.477 170.189,157.143 171,153.5C 171.718,154.451 172.551,154.617 173.5,154C 174.743,152.846 175.743,151.512 176.5,150C 178.027,148.632 179.527,148.132 181,148.5C 181.667,147.167 181.667,145.833 181,144.5C 177.956,141.664 178.789,140.831 183.5,142C 185.833,143.043 188.166,143.876 190.5,144.5 Z"/></g>
<g><path style="opacity:0.776" fill="#202f68" d="M 120.5,118.5 C 119.833,135.167 119.167,151.833 118.5,168.5C 118.667,151.497 118.5,134.497 118,117.5C 116.528,127 116.028,136.667 116.5,146.5C 115.672,140.347 115.172,134.013 115,127.5C 113.939,124.834 113.106,122.167 112.5,119.5C 112.511,117.983 113.177,116.816 114.5,116C 117.79,113.813 119.79,114.646 120.5,118.5 Z"/></g>
</svg>
